<svg xmlns="http://www.w3.org/2000/svg" width="400" height="400" viewBox="0 0 400 400"><path d="M280.73 127.116a8.947 8.947 0 0 0-6.261-2.762 9.243 9.243 0 0 0-2.21.368l-72.927 18.048 31.491-85.27a7.5 7.5 0 0 0 .921-3.315 8.031 8.031 0 0 0-8.287-7.735h-60.4a8.186 8.186 0 0 0-8.1 5.893l-37.023 151.936a7.229 7.229 0 0 0 2.394 7.182 9.879 9.879 0 0 0 7.919 1.842l74.768-18.6L166.736 343.5a7.723 7.723 0 0 0 5.525 9.024 14.463 14.463 0 0 0 2.578.369 8.768 8.768 0 0 0 7.735-4.6l99.445-213.072a7.308 7.308 0 0 0-1.289-8.105z" fill="#fff" fill-rule="evenodd"/></svg>